<svg width="300" height="85" viewBox="0 0 234 66" version="1.1" xmlns="http://www.w3.org/2000/svg"
     xml:space="preserve" xmlns:serif="http://www.serif.com/"
     style="fill-rule:evenodd;clip-rule:evenodd;stroke-linejoin:round;stroke-miterlimit:1.41421;"><rect id="Artboard1" x="0" y="0" width="233.176" height="65.193" style="fill:none;"></rect>
    <g id="Vrstva-1" serif:id="Vrstva 1"><path d="M17.989,3.72l13.006,0.018l13.007,0.018l8.29,10.333l8.291,10.333l-2.668,12.867l-2.669,12.867l-11.617,5.712l-11.618,5.712l-11.819,-5.744l-11.819,-5.744l-3.12,-12.876l-3.12,-12.875l15.856,-20.621Z" style="fill:url(#_Linear1);"></path>
        <path d="M29.735,1.352l17.656,0.022l-12.4,20.333l10.944,-1.742l-12.685,20.75l10.528,-1.908l-25.292,25.831l8.941,-23.049l-7.564,1.324l8.458,-20.013l-7.304,1.217l8.718,-22.765Z"
              style="fill:url(#_Linear2);"></path>
        <path d="M100.115,30.885c-0.005,2.458 -1.202,4.172 -3.592,5.154c-1.737,0.705 -4.362,1.053 -7.889,1.053c-0.819,0 -1.958,-0.021 -3.444,-0.062c-1.472,-0.041 -2.541,-0.061 -3.193,-0.061l-0.021,10.911l-9.318,0l0.078,-38.882l9.317,0l-0.002,1.104c2.167,-0.235 4.347,-0.48 6.514,-0.746c2.736,-0.317 4.903,-0.481 6.513,-0.481c3.388,0 5.08,1.227 5.076,3.692l-0.039,18.318Zm-9.355,-1.882l0.031,-14.279l-8.749,0.113l-0.035,16.437l5.777,0c1.985,0 2.973,-0.757 2.976,-2.271Zm42.3,15.084c-0.004,2.495 -1.757,3.743 -5.255,3.743l-16.066,0c-3.499,0 -5.247,-1.248 -5.242,-3.743l0.042,-22.772c0.005,-2.495 1.757,-3.742 5.256,-3.742l16.066,0c3.499,0 5.247,1.247 5.242,3.742l-0.021,11.115l-2.559,1.892l-15.093,0l-0.016,8.477l8.748,0l0.009,-5.031l8.901,0l-0.012,6.319Zm-8.874,-14.234l0.014,-7.249l-8.749,0l-0.013,7.249l8.748,0Zm42.221,0.358l-9.234,0l0.013,-6.912l-7.359,0.112l-0.046,24.419l-9.318,0l0.057,-30.257l9.318,0l-0.003,1.104c1.931,-0.256 3.848,-0.511 5.737,-0.777c2.305,-0.297 4.236,-0.45 5.777,-0.45c3.388,0 5.08,1.227 5.075,3.691l-0.017,9.07Zm30.72,17.619l-9.276,0l0.002,-1.053c-2.139,0.266 -4.305,0.521 -6.472,0.787c-2.625,0.297 -4.806,0.45 -6.513,0.45c-3.389,0 -5.08,-1.248 -5.076,-3.753l0.05,-26.688l9.234,0l-0.046,24.562l8.832,-0.144l0.045,-24.418l9.276,0l-0.056,30.257Zm34.835,0l-9.36,0l0.046,-24.531l-8.748,0.112l-0.046,24.419l-9.317,0l0.057,-30.257l9.317,0l-0.002,1.104c2.167,-0.256 4.333,-0.501 6.472,-0.747c2.653,-0.317 4.847,-0.48 6.555,-0.48c3.388,0 5.08,1.227 5.075,3.691l-0.049,26.689Z"
              style="fill:#3b4c55;fill-rule:nonzero;"></path></g>
    <defs><linearGradient id="_Linear1" x1="0" y1="0" x2="1" y2="0" gradientUnits="userSpaceOnUse" gradientTransform="matrix(-0.00028,-57.8611,-58.4507,0.00029,60.5834,61.5804)"><stop offset="0" style="stop-color:#00649d;stop-opacity:1"></stop><stop
            offset="0.9" style="stop-color:#00649d;stop-opacity:1"></stop><stop offset="1"
                                                                                style="stop-color:#00649d;stop-opacity:1"></stop></linearGradient>
        <linearGradient id="_Linear2" x1="0" y1="0" x2="1" y2="0" gradientUnits="userSpaceOnUse"
                        gradientTransform="matrix(27.2865,-31.0119,-29.5675,-26.0157,43.1399,69.4926)"><stop offset="0" style="stop-color:#fdb817;stop-opacity:1"></stop>
            <stop offset="0.45" style="stop-color:#fdb817;stop-opacity:1"></stop>
            <stop offset="1" style="stop-color:#fdb817;stop-opacity:1"></stop></linearGradient></defs></svg>